<svg width="512" height="512" viewBox="0 0 512 512" fill="none" stroke="currentColor"
  xmlns="http://www.w3.org/2000/svg">
  <g clip-path="url(#clip0_7_9)">
    <path
      d="M77 4H435C475.317 4 508 36.6832 508 77V435C508 475.317 475.317 508 435 508H77C36.6832 508 4 475.317 4 435V77C4 36.6832 36.6832 4 77 4Z"
      stroke-width="8" />
    <path
      d="M46.4948 344.999C41.9133 344.999 38.0186 343.472 34.8106 340.42C31.6035 337.288 30 333.569 30 329.263C30 324.878 31.6035 321.12 34.8106 317.988C38.0177 314.856 41.9124 313.29 46.4948 313.29C51.1523 313.29 55.085 314.856 58.2929 317.988C61.5768 321.12 63.2187 324.878 63.2187 329.263C63.2187 333.569 61.5768 337.288 58.2929 340.42C55.0859 343.474 51.1532 345.001 46.4948 345M229.658 342.417H199.875L121.412 218.63C119.455 215.549 117.806 212.284 116.487 208.881H115.799C116.411 212.483 116.716 220.195 116.716 232.016V342.417H90.3701V174H122.099L197.929 294.851C201.135 299.863 203.197 303.308 204.115 305.186H204.572C203.808 300.723 203.427 293.168 203.427 282.519V174H229.658V342.417ZM357.953 342.417H265.745V174H354.287V197.724H293.006V245.407H349.478V269.013H293.006V318.809H357.953V342.417ZM489 197.724H441.805V342.417H414.544V197.724H367.465V174H488.999L489 197.724Z"
      stroke-width="8" />
  </g>
  <defs>
    <clipPath id="clip0_7_9">
      <rect width="512" height="512" />
    </clipPath>
  </defs>
</svg>