<svg width="512" height="512" viewBox="0 0 512 512" fill="currentColor" xmlns="http://www.w3.org/2000/svg">
  <path
    d="M25.8245 348.39C20.8736 348.39 16.6649 346.741 13.1984 343.442C9.73281 340.058 8 336.039 8 331.386C8 326.648 9.73281 322.587 13.1984 319.202C16.664 315.818 20.8727 314.125 25.8245 314.125C30.8574 314.125 35.1071 315.818 38.5736 319.202C42.1222 322.587 43.8965 326.648 43.8965 331.386C43.8965 336.039 42.1222 340.058 38.5736 343.442C35.108 346.743 30.8583 348.393 25.8245 348.392M223.752 345.6H191.569L106.781 211.835C104.666 208.507 102.884 204.978 101.459 201.3H100.715C101.376 205.194 101.707 213.527 101.707 226.301V345.6H73.2365V163.608H107.523L189.466 294.2C192.93 299.616 195.159 303.339 196.151 305.368H196.644C195.819 300.546 195.407 292.381 195.407 280.874V163.608H223.752V345.6ZM362.389 345.6H262.748V163.608H358.428V189.245H292.207V240.771H353.231V266.28H292.207V320.09H362.389V345.6ZM504 189.245H453.001V345.6H423.542V189.245H372.668V163.608H503.999L504 189.245Z" />
</svg>