<svg width="512" height="512" viewBox="0 0 512 512" fill="currentColor" xmlns="http://www.w3.org/2000/svg">
  <path
    d="M435 0C477.526 0 512 34.4741 512 77V435C512 477.526 477.526 512 435 512H77C34.4741 512 0 477.526 0 435V77C0 34.4741 34.4741 0 77 0H435ZM46.4951 313.29C41.9128 313.29 38.0176 314.855 34.8105 317.987C31.6035 321.119 30 324.879 30 329.264C30.0001 333.569 31.6036 337.288 34.8105 340.42C37.9182 343.377 41.6706 344.902 46.0674 344.994L46.4951 345C51.1533 345.001 55.086 343.474 58.293 340.42C61.5767 337.288 63.2186 333.569 63.2188 329.264C63.2188 324.879 61.5768 321.119 58.293 317.987C55.0851 314.856 51.1524 313.29 46.4951 313.29ZM90.3701 174V342.417H116.717V232.017C116.717 220.196 116.411 212.484 115.799 208.881H116.487C117.805 212.284 119.455 215.549 121.412 218.63L199.875 342.417H229.658V174H203.427V282.519C203.427 293.167 203.809 300.723 204.572 305.186H204.115C203.197 303.307 201.135 299.862 197.929 294.851L122.1 174H90.3701ZM265.744 174V342.417H357.952V318.81H293.006V269.013H349.478V245.406H293.006V197.725H354.287V174H265.744ZM367.465 174V197.725H414.544V342.417H441.805V197.725H489L488.999 174H367.465Z" />
</svg>