<svg width="1024" height="1024" viewBox="0 0 1024 1024" fill="none" xmlns="http://www.w3.org/2000/svg">
<path d="M417.615 76.875C375.223 86.2992 333.289 99.4199 293.973 119.209C294.872 153.925 297.116 187.189 301.666 220.977C286.398 230.759 270.351 239.154 256.09 250.605C241.6 261.753 226.8 272.418 213.68 285.455C187.468 268.118 159.725 251.825 131.145 237.443C100.337 270.599 71.5312 306.383 48 346.428C66.4931 375.457 86.3295 404.633 104.699 427.387V625.17V650.291V673.152C105.149 673.157 105.598 673.173 106.043 673.215L256.713 687.742C264.605 688.504 270.79 694.857 271.34 702.766L275.986 769.275L407.416 778.654L416.471 717.268C417.645 709.309 424.471 703.41 432.521 703.41H591.482C599.529 703.41 606.355 709.309 607.529 717.268L616.584 778.654L748.018 769.275L752.66 702.766C753.214 694.857 759.395 688.508 767.287 687.742L917.898 673.215C918.344 673.173 918.789 673.157 919.238 673.152V653.541L919.301 653.521V427.387C940.517 400.677 960.608 371.215 976 346.428C952.477 306.383 923.655 270.599 892.848 237.443C864.275 251.825 836.523 268.118 810.311 285.455C797.194 272.418 782.421 261.753 767.91 250.605C753.653 239.154 737.587 230.759 722.348 220.977C726.885 187.189 729.128 153.925 730.031 119.209C690.711 99.4199 648.782 86.2992 606.369 76.875C589.436 105.335 573.95 136.154 560.463 166.283C544.47 163.611 528.403 162.621 512.314 162.43V162.404C512.202 162.404 512.098 162.43 512.002 162.43C511.902 162.43 511.797 162.404 511.697 162.404V162.43C495.58 162.621 479.526 163.611 463.529 166.283C450.051 136.154 434.574 105.335 417.615 76.875ZM298.416 436.398C348.567 436.398 389.215 477.016 389.215 527.15C389.215 577.318 348.567 617.959 298.416 617.959C248.29 617.959 207.629 577.318 207.629 527.15C207.629 477.016 248.29 436.398 298.416 436.398ZM725.594 436.398C775.716 436.398 816.373 477.016 816.373 527.15C816.373 577.318 775.716 617.959 725.594 617.959C675.434 617.959 634.787 577.318 634.787 527.15C634.787 477.016 675.434 436.398 725.594 436.398ZM511.994 489.508C528.137 489.508 541.248 501.416 541.248 516.068V599.658C541.248 614.323 528.137 626.221 511.994 626.221C495.852 626.221 482.768 614.323 482.768 599.658V516.068C482.768 501.416 495.852 489.508 511.994 489.508Z" stroke="black" stroke-width="18"/>
<path d="M784.072 718.723L779.406 785.587C778.844 793.646 772.434 800.061 764.375 800.639L603.885 812.09C603.494 812.12 603.103 812.132 602.716 812.132C594.74 812.132 587.859 806.279 586.681 798.271L577.478 735.856H446.526L437.323 798.271C436.086 806.671 428.577 812.711 420.119 812.09L259.629 800.639C251.57 800.061 245.16 793.646 244.598 785.587L239.932 718.723L104.451 705.661C104.514 720.222 104.701 736.173 104.701 739.349C104.701 882.434 286.212 951.209 511.725 952H512H512.279C737.792 951.209 919.241 882.434 919.241 739.349C919.241 736.115 919.436 720.23 919.503 705.661L784.072 718.723Z" stroke="black" stroke-width="18"/>
<path d="M307.097 583.783C335.429 583.782 358.367 560.84 358.367 532.537C358.367 504.23 335.425 481.267 307.097 481.267C278.784 481.267 255.826 504.231 255.826 532.537C255.826 560.839 278.779 583.783 307.097 583.783Z" stroke="black" stroke-width="18"/>
<path d="M716.878 583.783C745.218 583.782 768.148 560.841 768.148 532.537C768.148 504.229 745.213 481.267 716.878 481.267C688.579 481.267 665.641 504.226 665.641 532.537C665.641 560.844 688.574 583.783 716.878 583.783Z" stroke="black" stroke-width="18"/>
</svg>
